<svg width="116" height="116" viewBox="0 0 116 116" fill="none" xmlns="http://www.w3.org/2000/svg">
<circle cx="58" cy="58" r="58" fill="url(#paint0_linear)" fill-opacity="0.85"/>
<path d="M57.5 62.25C60.6125 62.25 63.1062 59.7375 63.1062 56.625L63.125 45.375C63.125 42.2625 60.6125 39.75 57.5 39.75C54.3875 39.75 51.875 42.2625 51.875 45.375V56.625C51.875 59.7375 54.3875 62.25 57.5 62.25ZM67.4375 56.625C67.4375 62.25 62.675 66.1875 57.5 66.1875C52.325 66.1875 47.5625 62.25 47.5625 56.625H44.375C44.375 63.0187 49.475 68.3062 55.625 69.225V75.375H59.375V69.225C65.525 68.325 70.625 63.0375 70.625 56.625H67.4375Z" fill="#3BC7C4"/>
<path d="M101 72C102.66 72 103.99 70.66 103.99 69C103.99 67.34 102.66 66 101 66C99.34 66 98 67.34 98 69C98 70.66 99.34 72 101 72ZM93 72C94.66 72 95.99 70.66 95.99 69C95.99 67.34 94.66 66 93 66C91.34 66 90 67.34 90 69C90 70.66 91.34 72 93 72ZM93 74C90.67 74 86 75.17 86 77.5V80H100V77.5C100 75.17 95.33 74 93 74ZM101 74C100.71 74 100.38 74.02 100.03 74.05C101.19 74.89 102 76.02 102 77.5V80H108V77.5C108 75.17 103.33 74 101 74Z" fill="#3BC7C4"/>
<path d="M62 94C63.66 94 64.99 92.66 64.99 91C64.99 89.34 63.66 88 62 88C60.34 88 59 89.34 59 91C59 92.66 60.34 94 62 94ZM54 94C55.66 94 56.99 92.66 56.99 91C56.99 89.34 55.66 88 54 88C52.34 88 51 89.34 51 91C51 92.66 52.34 94 54 94ZM54 96C51.67 96 47 97.17 47 99.5V102H61V99.5C61 97.17 56.33 96 54 96ZM62 96C61.71 96 61.38 96.02 61.03 96.05C62.19 96.89 63 98.02 63 99.5V102H69V99.5C69 97.17 64.33 96 62 96Z" fill="#3BC7C4"/>
<path d="M22 72C23.66 72 24.99 70.66 24.99 69C24.99 67.34 23.66 66 22 66C20.34 66 19 67.34 19 69C19 70.66 20.34 72 22 72ZM14 72C15.66 72 16.99 70.66 16.99 69C16.99 67.34 15.66 66 14 66C12.34 66 11 67.34 11 69C11 70.66 12.34 72 14 72ZM14 74C11.67 74 7 75.17 7 77.5V80H21V77.5C21 75.17 16.33 74 14 74ZM22 74C21.71 74 21.38 74.02 21.03 74.05C22.19 74.89 23 76.02 23 77.5V80H29V77.5C29 75.17 24.33 74 22 74Z" fill="#3BC7C4"/>
<defs>
<linearGradient id="paint0_linear" x1="58" y1="3.45707e-06" x2="1.27842e-06" y2="102" gradientUnits="userSpaceOnUse">
<stop offset="0.18325" stop-color="#E5E5E5"/>
<stop offset="0.448861" stop-color="#EEEEEE"/>
<stop offset="0.990559" stop-color="#DCDCDC"/>
</linearGradient>
</defs>
</svg>
